<svg width="51" height="51" viewBox="0 0 51 51" fill="none" xmlns="http://www.w3.org/2000/svg">
<circle cx="25.5" cy="25.5" r="25.5" fill="url(#paint0_linear_40_65)"/>
<path d="M36.688 15.304C36.56 15.496 36.368 15.7947 36.112 16.2C35.8773 16.6053 35.696 16.9787 35.568 17.32C35.12 18.3227 34.5653 19.4427 33.904 20.68C33.264 21.9173 32.528 23.1653 31.696 24.424C30.8853 25.6613 30.0213 26.824 29.104 27.912C27.9093 29.256 26.5867 30.5893 25.136 31.912C23.7067 33.2133 22.192 34.4187 20.592 35.528C19.0133 36.616 17.392 37.5547 15.728 38.344L12.432 34.888C14.16 34.2267 15.8347 33.3947 17.456 32.392C19.0773 31.3893 20.5813 30.3013 21.968 29.128C23.3547 27.9547 24.5493 26.8133 25.552 25.704C26.256 24.8933 26.9173 24.0293 27.536 23.112C28.176 22.1947 28.7413 21.288 29.232 20.392C29.7227 19.4747 30.0853 18.632 30.32 17.864C30.1067 17.864 29.7227 17.864 29.168 17.864C28.6133 17.864 27.9627 17.864 27.216 17.864C26.4907 17.864 25.7227 17.864 24.912 17.864C24.1013 17.864 23.3227 17.864 22.576 17.864C21.8507 17.864 21.2107 17.864 20.656 17.864C20.1013 17.864 19.7067 17.864 19.472 17.864C19.024 17.864 18.5547 17.8853 18.064 17.928C17.5733 17.9493 17.104 17.9813 16.656 18.024C16.2293 18.0453 15.8987 18.0667 15.664 18.088V13.544C15.984 13.5653 16.3787 13.5973 16.848 13.64C17.3173 13.6827 17.7867 13.7147 18.256 13.736C18.7467 13.7573 19.152 13.768 19.472 13.768C19.7493 13.768 20.1867 13.768 20.784 13.768C21.3813 13.768 22.064 13.768 22.832 13.768C23.6 13.768 24.3893 13.768 25.2 13.768C26.032 13.768 26.8213 13.768 27.568 13.768C28.336 13.768 28.9973 13.768 29.552 13.768C30.1067 13.768 30.512 13.768 30.768 13.768C31.472 13.768 32.112 13.7253 32.688 13.64C33.2853 13.5547 33.744 13.4587 34.064 13.352L36.688 15.304ZM29.52 25.256C30.352 25.9173 31.2373 26.6853 32.176 27.56C33.1147 28.4347 34.0427 29.3413 34.96 30.28C35.8773 31.2187 36.72 32.1253 37.488 33C38.2773 33.8533 38.9387 34.6 39.472 35.24L35.824 38.408C35.0347 37.32 34.128 36.1893 33.104 35.016C32.1013 33.8427 31.0347 32.68 29.904 31.528C28.7947 30.3547 27.664 29.2453 26.512 28.2L29.52 25.256Z" fill="white"/>
<defs>
<linearGradient id="paint0_linear_40_65" x1="25.5" y1="0" x2="25.5" y2="51" gradientUnits="userSpaceOnUse">
<stop stop-color="#31FFFC"/>
<stop offset="1" stop-color="#2FA8FF"/>
</linearGradient>
</defs>
</svg>
